<?xml version="1.0" encoding="UTF-8" standalone="no"?>
<svg
   xmlns:dc="http://purl.org/dc/elements/1.1/"
   xmlns:cc="http://creativecommons.org/ns#"
   xmlns:rdf="http://www.w3.org/1999/02/22-rdf-syntax-ns#"
   xmlns:svg="http://www.w3.org/2000/svg"
   xmlns="http://www.w3.org/2000/svg"
   xmlns:sodipodi="http://sodipodi.sourceforge.net/DTD/sodipodi-0.dtd"
   xmlns:inkscape="http://www.inkscape.org/namespaces/inkscape"
   inkscape:version="1.0 (4035a4fb49, 2020-05-01)"
   sodipodi:docname="pet-add.svg"
   version="1.1"
   width="20"
   viewBox="0 0 512 512"
   height="20"
   enable-background="new 0 0 512 512"
   id="Layer_1">
  <metadata
     id="metadata13">
    <rdf:RDF>
      <cc:Work
         rdf:about="">
        <dc:format>image/svg+xml</dc:format>
        <dc:type
           rdf:resource="http://purl.org/dc/dcmitype/StillImage" />
      </cc:Work>
    </rdf:RDF>
  </metadata>
  <defs
     id="defs11" />
  <sodipodi:namedview
     inkscape:current-layer="Layer_1"
     inkscape:window-maximized="1"
     inkscape:window-y="-9"
     inkscape:window-x="-9"
     inkscape:cy="10.770769"
     inkscape:cx="13.958543"
     inkscape:zoom="36.681165"
     showgrid="false"
     id="namedview9"
     inkscape:window-height="1001"
     inkscape:window-width="1920"
     inkscape:pageshadow="2"
     inkscape:pageopacity="0"
     guidetolerance="10"
     gridtolerance="10"
     objecttolerance="10"
     borderopacity="1"
     bordercolor="#666666"
     pagecolor="#ffffff"
     inkscape:document-rotation="0" />
  <path
     style="stroke-width:0.917136"
     id="path2"
     d="M 448.60729,104.18124 C 426.46833,78.55131 393.25941,48 360.77877,48 350.92452,48 340.99159,54.166191 327.5852,65.699966 308.60114,57.967243 266.8362,48 245.63661,48 224.41879,48 182.65385,57.974256 163.68801,65.699966 150.28163,54.166191 140.3487,48 130.49445,48 98.013804,48 64.804886,78.55131 42.665927,104.18124 26.169894,123.27855 0,159.18342 0,174.23422 c 0,28.26857 1.0007773,40.95949 26.098889,71.53272 19.157737,23.33667 21.188077,57.33137 34.038901,75.79138 8.408256,12.07903 21.087327,16.89259 35.699827,13.55615 14.561643,-3.32592 24.016733,-14.54148 28.205993,-33.38808 16.20626,20.39297 13.47835,32.37996 14.54821,39.31583 1.07754,26.42327 50.56084,71.63441 107.04479,71.63441 56.39087,0 105.96533,-45.1638 107.04478,-71.63354 1.06411,-6.90168 -1.754,-18.9062 14.53478,-39.37192 4.28233,19.32435 15.37244,34.47684 37.02588,34.47684 40.58474,0 33.81438,-57.34715 60.93131,-90.38019 25.09812,-30.57323 26.09889,-43.26415 26.09889,-71.53273 9.6e-4,-15.05167 -26.16893,-50.95654 -42.66496,-70.05385 z M 245.63661,307.48145 c -7.99279,0 -17.45939,-11.02358 -21.36655,-17.98487 11.3511,-4.07281 31.37432,-4.07456 42.73213,0 -3.90619,6.96129 -13.3728,17.98487 -21.36558,17.98487 z m -9.6e-4,56.07078 c 9.97515,6.88327 23.00732,11.03761 36.39835,12.5717 -24.20768,11.31637 -48.56024,11.32865 -72.79575,0 13.39007,-1.53409 26.42321,-5.68843 36.3974,-12.5717 z M 440.61066,228.93571 c -24.17313,29.44501 -27.88167,72.09026 -36.6603,79.14272 -5.47981,-0.45585 -7.50535,-15.74947 -7.99375,-20.76027 -2.51585,-25.85785 3.20288,-62.80152 3.20288,-85.03189 0,-37.93952 -31.00491,-95.02982 -32.32521,-97.44142 -3.79201,-6.92886 -13.0149,-9.735818 -20.59701,-6.273143 -7.58403,3.464423 -10.65737,11.889683 -6.86631,18.817663 8.0897,14.78168 29.08395,58.84794 29.08395,84.8969 0,14.63265 -2.92845,38.04471 -3.66632,60.51791 -8.30079,6.53612 -42.39054,35.64012 -42.39054,72.72932 0,17.38613 -53.3943,17.43785 -63.19866,0.46724 -0.41259,-0.71533 -0.98158,-1.53498 -1.59088,-2.23014 23.06586,-6.72373 41.7611,-33.24957 41.7611,-47.32819 0,-37.64935 -107.46601,-37.64935 -107.46601,0 0,14.07336 18.63192,40.58518 41.7611,47.32819 -0.60162,0.68552 -1.17061,1.50166 -1.59088,2.22926 -9.83794,17.02233 -63.19865,16.88909 -63.19865,-0.46636 0,-37.0892 -34.08976,-66.1932 -42.39055,-72.72932 -0.711,-21.65794 -3.66632,-46.24468 -3.66632,-60.51791 0,-25.98497 20.99618,-70.09594 29.08395,-84.8969 3.79202,-6.92798 0.71772,-15.35324 -6.86631,-18.817663 -7.58307,-3.464428 -16.80596,-0.655717 -20.59701,6.273143 -1.3203,2.4116 -32.325203,59.5019 -32.325203,97.44142 0,22.24176 5.716809,59.19245 3.201912,85.03189 -0.487435,5.0108 -2.512978,20.30355 -7.993744,20.76027 -8.870744,-7.1261 -12.40177,-49.59252 -36.660304,-79.14272 -19.744962,-24.052 -19.955096,-30.60829 -19.957975,-53.93795 1.780866,-6.46161 16.329078,-31.12024 38.215683,-55.90072 23.075448,-26.127853 45.412071,-42.048267 60.195361,-42.999407 4.53564,2.081988 13.93124,10.219712 21.22838,16.88558 5.81372,5.312356 15.19109,5.496448 21.24948,0.405001 7.62817,-4.757452 53.51808,-17.336166 74.04409,-17.336166 20.52601,0 66.41591,12.578714 74.04408,17.336166 6.05168,5.085311 15.42905,4.912615 21.24949,-0.405001 12.66659,-11.572347 18.52541,-15.637264 21.23029,-16.88558 14.7833,0.952893 37.11896,16.874184 60.19248,42.999407 21.88661,24.78048 36.43482,49.43911 38.21569,55.90072 -0.002,23.32966 -0.21302,29.88595 -19.95798,53.93795 z" />
  <ellipse
     style="stroke-width:0.917136"
     ry="17.53253"
     rx="19.190359"
     id="circle4"
     cy="191.76675"
     cx="172.71324" />
  <ellipse
     style="stroke-width:0.917136"
     ry="17.53253"
     rx="19.190359"
     id="circle6"
     cy="191.76675"
     cx="318.55997" />
  <g
     transform="matrix(0.38850984,0,0,0.35405703,311.07641,332.36383)"
     id="g917">
    <g
       transform="matrix(1,0,0,1.9350267,0,-237.49825)"
       id="g848">
      <g
         id="g846">
        <path
           d="m 256,134.095 c -10.1,0 -18.286,8.186 -18.286,18.286 v 207.238 c 0,10.1 8.186,18.286 18.286,18.286 10.1,0 18.286,-8.186 18.286,-18.286 V 152.381 c 0,-10.1 -8.186,-18.286 -18.286,-18.286 z"
           id="path844" />
      </g>
    </g>
    <g
       transform="matrix(2.089711,0,0,1,-280.68096,0)"
       id="g854">
      <g
         id="g852">
        <path
           d="M 359.619,237.714 H 152.381 c -10.1,0 -18.286,8.186 -18.286,18.286 0,10.1 8.186,18.286 18.286,18.286 h 207.238 c 10.1,0 18.286,-8.186 18.286,-18.286 0,-10.1 -8.186,-18.286 -18.286,-18.286 z"
           id="path850" />
      </g>
    </g>
    <g
       id="g856" />
    <g
       id="g858" />
    <g
       id="g860" />
    <g
       id="g862" />
    <g
       id="g864" />
    <g
       id="g866" />
    <g
       id="g868" />
    <g
       id="g870" />
    <g
       id="g872" />
    <g
       id="g874" />
    <g
       id="g876" />
    <g
       id="g878" />
    <g
       id="g880" />
    <g
       id="g882" />
    <g
       id="g884" />
  </g>
</svg>
