<svg id="Capa_1" enable-background="new 0 0 512.003 512.003" height="20" viewBox="0 0 512.003 512.003" width="20" xmlns="http://www.w3.org/2000/svg"><g><path d="m153.82 189.997c-8.32 7.704-12.586 18.884-12.586 29.987 0 19.886 13.66 40.017 39.768 40.017 18.604 0 34.283-12.767 38.734-30h72.531c4.451 17.233 20.13 30 38.734 30 24.47 0 39.768-18.442 39.768-39.983 0-11.113-4.266-22.303-12.586-30.013 8.32-7.704 12.586-18.884 12.586-29.987 0-19.886-13.66-40.017-39.768-40.017-18.604 0-34.283 12.767-38.734 30h-72.531c-4.451-17.233-20.13-30-38.734-30-24.47 0-39.768 18.442-39.768 39.983 0 11.114 4.266 22.303 12.586 30.013zm27.181-9.996c-14.591 0-19.768-10.783-19.768-20.017 0-9.218 5.177-19.983 19.768-19.983 11.028 0 20 8.972 20 20 0 5.523 4.477 10 10 10h90c5.523 0 10-4.477 10-10 0-11.028 8.972-20 20-20 14.591 0 19.768 10.783 19.768 20.017 0 9.218-5.177 19.983-19.768 19.983-5.523 0-10 4.477-10 10s4.477 10 10 10c14.591 0 19.768 10.783 19.768 20.017 0 9.218-5.177 19.983-19.768 19.983-11.028 0-20-8.972-20-20 0-5.523-4.477-10-10-10h-90c-5.523 0-10 4.477-10 10 0 11.028-8.972 20-20 20-14.591 0-19.768-10.783-19.768-20.017 0-9.218 5.177-19.983 19.768-19.983 5.523 0 10-4.477 10-10s-4.477-10-10-10z"/><path d="m15.308 172.478 50.693-31.735v351.259h-20c-5.523 0-10 4.477-10 10s4.477 10 10 10h165c5.523 0 10-4.477 10-10s-4.477-10-10-10h-35v-101c0-44.112 35.888-80 80-80s80 35.888 80 80v101h-35c-5.523 0-10 4.477-10 10s4.477 10 10 10h165c5.523 0 10-4.477 10-10s-4.477-10-10-10h-20v-351.259l50.693 31.735c4.7 2.942 10.863 1.494 13.783-3.169 2.931-4.681 1.511-10.852-3.169-13.783-11.063-6.926-229.521-143.683-246-154-3.246-2.032-7.366-2.032-10.612 0-16.552 10.362-235.01 147.119-246 154-4.681 2.931-6.1 9.102-3.169 13.783 2.929 4.681 9.1 6.1 13.781 3.169zm240.693-150.679 170 106.423v363.779h-70v-101c0-55.14-44.86-100-100-100s-100 44.86-100 100v101h-70v-363.779z"/><circle cx="256.002" cy="502.001" r="10"/></g></svg>